<svg width="54" height="54" viewBox="0 0 54 54" fill="none" xmlns="http://www.w3.org/2000/svg">
<path d="M39.2915 35.5219C39.1237 35.5219 38.9627 35.4552 38.844 35.3365C38.7254 35.2178 38.6587 35.0569 38.6587 34.8891V34.2742C38.6587 34.1063 38.7254 33.9454 38.844 33.8267C38.9627 33.708 39.1237 33.6414 39.2915 33.6414C39.4593 33.6414 39.6203 33.708 39.739 33.8267C39.8576 33.9454 39.9243 34.1063 39.9243 34.2742V34.8891C39.9243 35.0569 39.8576 35.2178 39.739 35.3365C39.6203 35.4552 39.4593 35.5219 39.2915 35.5219Z" fill="#FC8B00"/>
<path d="M39.2915 46.8535C39.1237 46.8535 38.9627 46.7868 38.844 46.6682C38.7254 46.5495 38.6587 46.3885 38.6587 46.2207V36.8835C38.6587 36.7157 38.7254 36.5548 38.844 36.4361C38.9627 36.3174 39.1237 36.2507 39.2915 36.2507C39.4593 36.2507 39.6203 36.3174 39.739 36.4361C39.8576 36.5548 39.9243 36.7157 39.9243 36.8835V46.2207C39.9243 46.3885 39.8576 46.5495 39.739 46.6682C39.6203 46.7868 39.4593 46.8535 39.2915 46.8535Z" fill="#FC8B00"/>
<path d="M16.5267 4.69623C16.5825 4.60098 16.6623 4.52198 16.7581 4.46708C16.8538 4.41218 16.9623 4.3833 17.0727 4.3833C17.1831 4.3833 17.2916 4.41218 17.3874 4.46708C17.4832 4.52198 17.5629 4.60098 17.6187 4.69623L21.4863 11.2986C22.1139 12.3719 22.3293 13.637 22.092 14.8575C21.8548 16.078 21.1812 17.1704 20.1972 17.9304C19.2132 18.6904 17.9861 19.0661 16.7452 18.9873C15.5044 18.9084 14.3347 18.3804 13.4548 17.5019C12.6553 16.7013 12.1436 15.6584 11.9995 14.5362C11.8553 13.4139 12.087 12.2756 12.6582 11.2989L16.5267 4.69623ZM14.3497 16.6069C15.0114 17.27 15.8922 17.6691 16.827 17.7294C17.7618 17.7896 18.6865 17.507 19.4278 16.9344C20.1692 16.3618 20.6764 15.5385 20.8543 14.6188C21.0322 13.6991 20.8686 12.7461 20.3943 11.9384L17.0729 6.26803L13.7507 11.9381C13.3207 12.6732 13.1464 13.53 13.2548 14.3747C13.3633 15.2193 13.7484 16.0043 14.35 16.6069H14.3497Z" fill="#FC8B00"/>
<path d="M14.5004 13.1984C14.5818 13.1819 14.6657 13.1816 14.7473 13.1975C14.8289 13.2134 14.9065 13.2452 14.9758 13.2911C15.0451 13.337 15.1046 13.3962 15.151 13.4651C15.1975 13.534 15.2299 13.6114 15.2464 13.6929C15.3191 14.0527 15.4967 14.383 15.7567 14.6421C15.9554 14.8422 16.1976 14.9938 16.4644 15.085C16.6232 15.1396 16.7537 15.255 16.8274 15.4058C16.9011 15.5566 16.9118 15.7305 16.8572 15.8892C16.8027 16.0479 16.6873 16.1785 16.5365 16.2521C16.3857 16.3258 16.2118 16.3366 16.0531 16.282C15.5381 16.104 15.0784 15.7948 14.7194 15.3849C14.3604 14.9749 14.1145 14.4785 14.0059 13.9445C13.9894 13.8631 13.9891 13.7791 14.005 13.6976C14.0209 13.616 14.0527 13.5383 14.0986 13.469C14.1445 13.3998 14.2036 13.3402 14.2726 13.2938C14.3415 13.2473 14.4189 13.2149 14.5004 13.1984Z" fill="#FC8B00"/>
<path d="M17.0735 1.14636C18.7532 1.14524 20.4091 1.54401 21.9042 2.30971C23.3992 3.0754 24.6905 4.186 25.6713 5.54968H45.0691C45.7203 5.54968 46.3448 5.80837 46.8053 6.26883C47.2657 6.72929 47.5244 7.35381 47.5244 8.005C47.5244 8.65619 47.2657 9.2807 46.8053 9.74116C46.3448 10.2016 45.7203 10.4603 45.0691 10.4603H44.4205V26.7468H45.0691C45.3915 26.7468 45.7107 26.8103 46.0085 26.9336C46.3063 27.057 46.5769 27.2378 46.8049 27.4658C47.0328 27.6937 47.2137 27.9643 47.337 28.2622C47.4604 28.56 47.5239 28.8792 47.5239 29.2016C47.5239 29.5239 47.4604 29.8432 47.337 30.141C47.2137 30.4388 47.0328 30.7094 46.8049 30.9374C46.5769 31.1653 46.3063 31.3461 46.0085 31.4695C45.7107 31.5929 45.3915 31.6564 45.0691 31.6564H44.4205V47.9428H45.0691C45.7203 47.9428 46.3448 48.2015 46.8053 48.662C47.2657 49.1224 47.5244 49.747 47.5244 50.3982C47.5244 51.0493 47.2657 51.6739 46.8053 52.1343C46.3448 52.5948 45.7203 52.8535 45.0691 52.8535H15.3143C14.6631 52.8535 14.0386 52.5948 13.5781 52.1343C13.1176 51.6739 12.859 51.0493 12.859 50.3982C12.859 49.747 13.1176 49.1224 13.5781 48.662C14.0386 48.2015 14.6631 47.9428 15.3143 47.9428H15.9639V31.6564H15.3143C14.6632 31.6564 14.0388 31.3977 13.5785 30.9374C13.1181 30.477 12.8595 29.8526 12.8595 29.2016C12.8595 28.5505 13.1181 27.9261 13.5785 27.4658C14.0388 27.0054 14.6632 26.7468 15.3143 26.7468H15.9639V22.2829C13.2644 21.9988 10.7768 20.6896 9.01412 18.6253C7.25146 16.561 6.34813 13.899 6.49043 11.1882C6.63272 8.47749 7.80979 5.9247 9.7789 4.05629C11.748 2.18788 14.359 1.14631 17.0735 1.14636ZM45.0691 9.19468C45.3846 9.19468 45.6872 9.06934 45.9103 8.84623C46.1334 8.62312 46.2588 8.32052 46.2588 8.005C46.2588 7.68947 46.1334 7.38687 45.9103 7.16376C45.6872 6.94065 45.3846 6.81531 45.0691 6.81531H26.4566C26.854 7.56856 27.1576 8.36763 27.3607 9.19468H45.0691ZM15.3143 49.2085C14.9987 49.2085 14.6961 49.3338 14.473 49.5569C14.2499 49.78 14.1246 50.0826 14.1246 50.3982C14.1246 50.7137 14.2499 51.0163 14.473 51.2394C14.6961 51.4625 14.9987 51.5878 15.3143 51.5878H45.0691C45.3045 51.5878 45.5346 51.5179 45.7302 51.3871C45.9259 51.2563 46.0784 51.0704 46.1684 50.8529C46.2584 50.6354 46.2818 50.3961 46.2358 50.1653C46.1898 49.9344 46.0763 49.7224 45.9098 49.5561C45.7997 49.4452 45.6687 49.3574 45.5244 49.2976C45.3801 49.2379 45.2253 49.2074 45.0691 49.208H42.3635C42.1957 49.208 42.0347 49.1414 41.916 49.0227C41.7974 48.904 41.7307 48.7431 41.7307 48.5752C41.7307 48.4074 41.7974 48.2464 41.916 48.1278C42.0347 48.0091 42.1957 47.9424 42.3635 47.9424H43.1545V31.6564H17.2296V47.9428H39.797C39.9649 47.9428 40.1258 48.0095 40.2445 48.1282C40.3632 48.2469 40.4298 48.4078 40.4298 48.5757C40.4298 48.7435 40.3632 48.9044 40.2445 49.0231C40.1258 49.1418 39.9649 49.2085 39.797 49.2085H15.3143ZM15.3143 28.0124C14.9989 28.0124 14.6964 28.1377 14.4734 28.3607C14.2504 28.5837 14.1251 28.8862 14.1251 29.2016C14.1251 29.517 14.2504 29.8194 14.4734 30.0424C14.6964 30.2654 14.9989 30.3907 15.3143 30.3907H45.0691C45.3845 30.3904 45.6869 30.2649 45.9099 30.0419C46.133 29.8189 46.2584 29.5165 46.2588 29.201C46.2587 29.0449 46.2279 28.8903 46.1681 28.746C46.1082 28.6018 46.0206 28.4707 45.9101 28.3603C45.7996 28.25 45.6685 28.1624 45.5242 28.1027C45.3799 28.043 45.2253 28.0123 45.0691 28.0124H24.0822C23.9144 28.0124 23.7534 27.9457 23.6347 27.8271C23.5161 27.7084 23.4494 27.5474 23.4494 27.3796C23.4494 27.2118 23.5161 27.0508 23.6347 26.9321C23.7534 26.8135 23.9144 26.7468 24.0822 26.7468H43.1548V10.4603H27.5927C27.7718 11.936 27.6385 13.4328 27.2017 14.8537C26.7648 16.2746 26.034 17.5877 25.0568 18.7079C24.0796 19.828 22.8778 20.7302 21.5293 21.3558C20.1808 21.9814 18.7159 22.3165 17.2296 22.3394V26.7468H21.1291C21.2969 26.7468 21.4579 26.8135 21.5765 26.9321C21.6952 27.0508 21.7619 27.2118 21.7619 27.3796C21.7619 27.5474 21.6952 27.7084 21.5765 27.8271C21.4579 27.9457 21.2969 28.0124 21.1291 28.0124H15.3143ZM16.6285 21.0649C16.7849 21.0721 16.9305 21.0754 17.0735 21.0754C18.4502 21.0747 19.8098 20.7695 21.0547 20.1816C22.2997 19.5938 23.3992 18.7379 24.2745 17.6752C25.1498 16.6125 25.7792 15.3694 26.1177 14.0349C26.4561 12.7004 26.4952 11.3076 26.2322 9.95617C25.9991 8.74576 25.5258 7.59436 24.84 6.57009C23.9563 5.24359 22.7476 4.16554 21.329 3.4387C19.9105 2.71187 18.3294 2.36049 16.7366 2.41805C15.1437 2.47561 13.5921 2.9402 12.2298 3.76752C10.8674 4.59485 9.73962 5.75733 8.95398 7.14416C8.16833 8.53099 7.751 10.0959 7.74175 11.6898C7.73251 13.2837 8.13166 14.8534 8.90117 16.2492C9.67067 17.6451 10.7849 18.8206 12.1375 19.6636C13.4902 20.5067 15.0363 20.9893 16.6284 21.0653L16.6285 21.0649Z" fill="#FC8B00"/>
</svg>
