<svg width="24" height="24" viewBox="0 0 24 24" fill="none" xmlns="http://www.w3.org/2000/svg">
<path d="M17.0778 5.41274C16.8477 5.1827 16.4748 5.1827 16.2447 5.41274C16.0147 5.64278 16.0147 6.01575 16.2447 6.24579L21.0708 11.0719L0.833175 11.0757C0.507848 11.0758 0.244169 11.3396 0.244231 11.6649C0.244294 11.9902 0.508074 12.2539 0.833401 12.2539L21.0702 12.25L16.2447 17.0755C16.0147 17.3055 16.0147 17.6785 16.2447 17.9085C16.4748 18.1385 16.8477 18.1385 17.0778 17.9085L22.906 12.0802L22.9091 12.0771C22.9187 12.0676 22.9279 12.0578 22.9366 12.0477C22.9269 12.0589 22.9166 12.0698 22.906 12.0802" fill="#FC8B00"/>
<path d="M23.0817 11.6624C23.0817 11.66 23.0817 11.6576 23.0816 11.6551L23.0817 11.6605L23.0817 11.6624Z" fill="#FC8B00"/>
<path d="M23.0416 11.4468C23.0129 11.3729 22.9687 11.3037 22.9091 11.2441L17.0778 5.41274" fill="#FC8B00"/>
</svg>
