<svg width="109" height="40" viewBox="0 0 109 40" fill="none" xmlns="http://www.w3.org/2000/svg">
<path d="M20.9493 16.4088C24.4504 16.9613 27.1332 18.232 28.9979 20.221C30.8626 22.1731 31.795 24.6041 31.795 27.5138C31.795 29.7606 31.1861 31.8416 29.9683 33.7569C28.7506 35.6354 26.8859 37.1455 24.3742 38.2873C21.9007 39.4291 18.8563 40 15.241 40C12.425 40 9.64695 39.6501 6.90699 38.9503C4.20508 38.2136 1.90275 37.1823 0 35.8564L3.5962 29.0055C5.1184 30.1105 6.86893 30.9761 8.84779 31.6022C10.8647 32.1915 12.9197 32.4862 15.0127 32.4862C17.3341 32.4862 19.1607 32.0626 20.4926 31.2155C21.8246 30.3315 22.4905 29.0976 22.4905 27.5138C22.4905 24.3462 19.9979 22.7624 15.0127 22.7624H10.7886V16.8508L19.0085 7.8453H1.99789V0.662981H29.9683V6.46409L20.9493 16.4088Z" fill="#FC8B00"/>
<path d="M55.3014 15.0829C57.8511 15.0829 60.1724 15.5801 62.2654 16.5746C64.3585 17.5691 66.0139 18.9871 67.2316 20.8287C68.4494 22.6335 69.0583 24.733 69.0583 27.1271C69.0583 29.7053 68.3923 31.9705 67.0604 33.9227C65.7285 35.8748 63.9018 37.3849 61.5805 38.453C59.2972 39.4843 56.7475 40 53.9314 40C48.3373 40 43.961 38.3425 40.8024 35.0276C37.6438 31.7127 36.0646 26.9797 36.0646 20.8287C36.0646 16.4457 36.9208 12.6888 38.6333 9.55801C40.3458 6.42726 42.7242 4.05156 45.7686 2.43094C48.8511 0.810312 52.4092 0 56.443 0C58.5741 0 60.6101 0.239409 62.5509 0.718228C64.5297 1.16022 66.2041 1.80479 67.5741 2.65193L64.1492 9.22652C62.1703 7.93738 59.6777 7.29282 56.6714 7.29282C53.2845 7.29282 50.6016 8.25046 48.6227 10.1657C46.6439 12.081 45.5783 14.8619 45.4261 18.5083C47.7855 16.2247 51.0773 15.0829 55.3014 15.0829ZM53.4177 33.3149C55.3965 33.3149 56.9948 32.7993 58.2126 31.768C59.4684 30.7366 60.0963 29.337 60.0963 27.5691C60.0963 25.8011 59.4684 24.4015 58.2126 23.3702C56.9948 22.302 55.3585 21.768 53.3035 21.768C51.2866 21.768 49.6312 22.3204 48.3373 23.4254C47.0434 24.4936 46.3965 25.8748 46.3965 27.5691C46.3965 29.2634 47.0244 30.6446 48.2802 31.7127C49.536 32.7808 51.2485 33.3149 53.4177 33.3149Z" fill="#FC8B00"/>
<path d="M109 31.2155H102.493V39.337H93.4735V31.2155H71.9534V25.1934L90.7907 0.662981H100.495L83.0274 23.9227H93.7589V16.6851H102.493V23.9227H109V31.2155Z" fill="#FC8B00"/>
</svg>
