<svg width="37" height="39" viewBox="0 0 37 39" fill="none" xmlns="http://www.w3.org/2000/svg">
<path d="M34.742 9.165L34.7745 9.1325L26.7037 1.08337L24.407 3.38L28.9787 7.95163C26.942 8.73163 25.4903 10.6925 25.4903 13C25.4903 15.99 27.9169 18.4166 30.9069 18.4166C31.6761 18.4166 32.4128 18.2541 33.0736 17.9616V33.5833C33.0737 34.775 32.0987 35.75 30.907 35.75C29.7154 35.75 28.7404 34.775 28.7404 33.5834V23.8334C28.7404 21.4392 26.8013 19.5 24.407 19.5H22.2404V4.33337C22.2403 1.93913 20.3012 0 17.907 0H4.90704C2.5128 0 0.573669 1.93913 0.573669 4.33337V39H22.2403V22.75H25.4903V33.5834C25.4903 36.5734 27.9169 39 30.9069 39C33.8969 39 36.3236 36.5734 36.3236 33.5834V13C36.3237 11.505 35.717 10.1509 34.742 9.165ZM17.907 15.1666H4.90704V4.33337H17.907V15.1666ZM30.907 15.1666C29.7154 15.1666 28.7404 14.1916 28.7404 13C28.7404 11.8084 29.7154 10.8334 30.907 10.8334C32.0987 10.8334 33.0737 11.8084 33.0737 13C33.0737 14.1916 32.0987 15.1666 30.907 15.1666Z" fill="white"/>
</svg>
