<svg width="73" height="18" viewBox="0 0 73 18" fill="none" xmlns="http://www.w3.org/2000/svg">
<path d="M0 16.7055V6.53979H0.142177H2.98572V9.73088L5.20526 6.53979H5.35534H8.6886L5.17367 11.1053L9.49427 16.7055H9.34419H5.78977L2.98572 12.5507V16.7055H2.84354H0Z" fill="#0095DB"/>
<path d="M10.2131 6.53979H12.9539V12.4244L16.7453 6.53979H16.8875H19.6757V16.7055H19.5336H16.7848V10.8367L13.0566 16.7055H12.9144H10.063V6.53979H10.2131Z" fill="#0095DB"/>
<path d="M22.0298 16.7055V6.53979H22.172H25.0155V16.7055H24.8733H22.0298Z" fill="#0095DB"/>
<path d="M27.3845 6.53968H32.3055C33.0156 6.48251 33.7251 6.65712 34.3275 7.0373C34.7099 7.3067 35.0039 7.68321 35.1727 8.11942C35.2331 8.29148 35.2781 8.46858 35.307 8.64862C35.3306 8.80555 35.3438 8.96388 35.3465 9.12255C35.359 9.61081 35.1902 10.0864 34.8726 10.4574C34.5766 10.8134 34.1926 11.0857 33.7588 11.2473C33.9033 11.2844 34.0457 11.3292 34.1853 11.3816C34.3613 11.4469 34.5306 11.5289 34.6909 11.6265C35.0177 11.8341 35.3019 12.1021 35.5281 12.4163C35.8022 12.838 35.935 13.3359 35.9073 13.8381C35.9116 13.8933 35.9116 13.9488 35.9073 14.004C35.9073 14.0593 35.9073 14.1145 35.9073 14.1777C35.8249 14.8302 35.5176 15.4335 35.0384 15.8839C34.7056 16.1729 34.3179 16.3918 33.8985 16.5275C33.4792 16.6632 33.0367 16.7129 32.5977 16.6737H27.2266V6.53968H27.3845ZM30.236 14.6675H31.6972C31.8251 14.6671 31.9524 14.6512 32.0764 14.6201C32.2925 14.5685 32.493 14.4655 32.6609 14.3199C32.7544 14.2266 32.8263 14.1138 32.8713 13.9896C32.9164 13.8653 32.9335 13.7327 32.9216 13.6011C32.9323 13.4737 32.9136 13.3455 32.8671 13.2264C32.8205 13.1072 32.7473 13.0004 32.653 12.914C32.4843 12.7775 32.2873 12.6804 32.0764 12.6296C31.9633 12.6222 31.8499 12.6222 31.7368 12.6296H30.236V14.7149V14.6675ZM30.236 10.5443H31.2786C31.5908 10.5691 31.9034 10.5033 32.1791 10.3548C32.3415 10.2433 32.4677 10.0868 32.5424 9.90454C32.5499 9.84951 32.5499 9.79369 32.5424 9.73865C32.5464 9.6887 32.5464 9.63852 32.5424 9.58857C32.5414 9.32793 32.4427 9.07714 32.266 8.8856C32.1248 8.76668 31.9611 8.6774 31.7847 8.62312C31.6083 8.56884 31.4227 8.55067 31.2391 8.56966H30.1965V10.5601L30.236 10.5443Z" fill="#0095DB"/>
<path d="M49.0909 16.7055V9.32805H46.2632V6.53979H46.4054H54.9044V9.32805H52.0845V16.7055H51.9345H49.2331H49.0909Z" fill="#0095DB"/>
<path d="M53.5298 16.7055L57.1474 6.53979H60.7492L64.351 16.7055H61.1521L60.607 14.9441H57.2975L56.7288 16.7055H53.5693H53.5298ZM58.9483 9.12268L57.8583 12.7087H60.0383L58.9799 9.12268H58.9483Z" fill="#0095DB"/>
<path d="M64.8721 16.7066V6.54095H69.3033C70.1689 6.47348 71.0298 6.72026 71.7282 7.23604C72.2237 7.64014 72.5982 8.17309 72.8103 8.77627C72.8779 8.97157 72.9281 9.17246 72.9604 9.37658C72.9604 9.58195 72.9999 10.0085 72.9999 10.1665C72.9977 10.3514 72.9845 10.536 72.9604 10.7194C72.9282 10.9261 72.8779 11.1296 72.8103 11.3276C72.6072 11.9333 72.2344 12.468 71.7361 12.8678C71.0384 13.3924 70.1736 13.645 69.3033 13.5787H67.8657V16.6908H64.8721V16.7066ZM67.8657 8.80787V11.3513H68.5292C68.8474 11.3767 69.166 11.3081 69.4454 11.1538C69.6136 11.0469 69.75 10.8969 69.8404 10.7194C69.8773 10.6202 69.9012 10.5166 69.9115 10.4113C69.9115 10.3165 69.9115 10.2375 69.9115 10.1822C69.9115 10.127 69.9115 9.8189 69.9115 9.76361V9.58984C69.8536 9.3688 69.7262 9.17222 69.5481 9.02904C69.2516 8.83459 68.8982 8.74555 68.545 8.77627L67.8657 8.80787Z" fill="#0095DB"/>
<path d="M41.9586 16.9984H41.7058C40.9939 17.023 40.2851 16.8947 39.627 16.6222C38.9689 16.3497 38.3768 15.9393 37.8907 15.4186C37.1415 14.5661 36.6703 13.5051 36.54 12.3776V12.3224V12.2671V12.1407C36.54 12.0775 36.54 12.0143 36.54 11.9511V11.8879V11.8247V11.7537V11.6904V11.5562V11.493V11.4219V11.3508V11.2876C36.54 11.2244 36.54 11.1612 36.54 11.0902V11.0349V10.9796V10.9243C36.6703 9.79677 37.1415 8.73585 37.8907 7.88325C38.3768 7.36261 38.9689 6.95222 39.627 6.67971C40.2851 6.40721 40.9939 6.27892 41.7058 6.30351H41.9586H42.1008C42.4816 6.30313 42.8618 6.33219 43.2382 6.39041C44.3098 6.58347 45.2735 7.1623 45.9474 8.01754C46.0027 8.07283 46.0501 8.13602 46.0975 8.19132L44.0359 9.85005C44.0003 9.79013 43.9579 9.73449 43.9096 9.68419C43.5872 9.2843 43.1525 8.98996 42.6616 8.83902C42.5592 8.80187 42.4534 8.7754 42.3456 8.76002H42.1639H42.0139C41.914 8.75225 41.8136 8.75225 41.7137 8.76002L41.4688 8.81532H41.382C40.8983 8.97603 40.4725 9.27544 40.1577 9.67628C39.7913 10.2625 39.597 10.9399 39.597 11.6312C39.597 12.3225 39.7913 12.9999 40.1577 13.5861C40.4747 13.9846 40.8997 14.2835 41.382 14.4471H41.4688L41.7137 14.5024H41.9981H42.1718H42.3456C42.4534 14.487 42.5592 14.4606 42.6616 14.4234C43.1525 14.2725 43.5872 13.9781 43.9096 13.5783C43.9579 13.528 44.0003 13.4723 44.0359 13.4124L46.0975 15.0711C46.0501 15.1264 46.0027 15.1896 45.9474 15.2449C45.2755 16.0985 44.3148 16.6771 43.2461 16.872C42.8666 16.9262 42.484 16.9552 42.1008 16.9589H41.9586V16.9984Z" fill="#0095DB"/>
<path fill-rule="evenodd" clip-rule="evenodd" d="M20.1891 0.0157888C20.7159 0.0142256 21.2313 0.169013 21.6701 0.460552C22.1089 0.752091 22.4513 1.16728 22.654 1.65354C22.8567 2.13979 22.9105 2.67524 22.8087 3.19212C22.7069 3.70899 22.454 4.18403 22.0821 4.55709C21.7101 4.93015 21.2358 5.18446 20.7192 5.28781C20.2027 5.39116 19.6671 5.33892 19.1802 5.13769C18.6933 4.93645 18.2772 4.59527 17.9843 4.15736C17.6915 3.71944 17.5352 3.20447 17.5352 2.67766C17.5352 1.97306 17.8145 1.29719 18.312 0.798216C18.8095 0.299243 19.4845 0.0178797 20.1891 0.0157888ZM26.8478 0.0157888C27.3765 0.00795195 27.8956 0.157797 28.3388 0.446185C28.7821 0.734573 29.1294 1.14844 29.3365 1.63502C29.5436 2.1216 29.601 2.65884 29.5015 3.17821C29.402 3.69757 29.1501 4.17553 28.7779 4.55114C28.4056 4.92674 27.93 5.18295 27.4115 5.28711C26.8931 5.39127 26.3553 5.33864 25.8669 5.13595C25.3785 4.93326 24.9615 4.5897 24.6691 4.14906C24.3768 3.70842 24.2223 3.19068 24.2254 2.66188C24.2254 1.95727 24.5047 1.2814 25.0022 0.782427C25.4997 0.283454 26.1747 0.00209083 26.8793 0L26.8478 0.0157888Z" fill="#FFCC00"/>
</svg>
