<svg width="23" height="18" viewBox="0 0 23 18" fill="none" xmlns="http://www.w3.org/2000/svg">
<path fill-rule="evenodd" clip-rule="evenodd" d="M23 13.9091V4.09091C23 1.83156 21.1612 -2.35757e-06 18.8929 0L4.10714 1.43961e-05C1.83883 1.66074e-05 0 1.83158 0 4.09092V13.9091C0 16.1684 1.83883 18 4.10714 18L18.8929 18C21.1612 18 23 16.1684 23 13.9091ZM21.3571 4.94939L21.3571 13.9091C21.3571 15.2647 20.2538 16.3636 18.8929 16.3636L4.10714 16.3636C2.74615 16.3636 1.64286 15.2647 1.64286 13.9091L1.64286 4.94942L9.19049 10.0615C10.5843 11.0056 12.4157 11.0056 13.8095 10.0615L21.3571 4.94939ZM21.1522 3.10935C20.772 2.24231 19.9035 1.63636 18.8929 1.63636L4.10714 1.63638C3.09652 1.63638 2.228 2.24233 1.84779 3.10937L10.1143 8.70837C10.9506 9.27479 12.0494 9.27479 12.8857 8.70837L21.1522 3.10935Z" fill="#333333"/>
</svg>
