<svg width="73" height="23" viewBox="0 0 73 23" fill="none" xmlns="http://www.w3.org/2000/svg">
<path fill-rule="evenodd" clip-rule="evenodd" d="M0 11.5C0 5.175 5.22451 0 11.7373 0C18.25 0 23.4745 5.175 23.4745 11.5C23.4745 17.825 18.25 23 11.7373 23C10.449 23 9.23235 22.7844 8.08725 22.425C8.94608 17.6813 11.952 13.8 16.0314 12.1469C16.5324 12.7219 17.248 13.0094 18.0353 13.0094C19.4667 13.0094 20.6118 11.8594 20.6118 10.4219C20.6118 8.98438 19.4667 7.83437 18.0353 7.83437C16.6039 7.83437 15.4588 8.98438 15.4588 10.4219C10.3059 11.9312 6.1549 15.4531 4.00784 19.9812C3.36373 19.4062 2.71961 18.7594 2.21863 17.9688C2.36176 13.5844 4.58039 9.70312 7.87255 7.40313C8.37353 7.97813 9.08922 8.26562 9.8049 8.26562C11.2363 8.26562 12.3814 7.11562 12.3814 5.67812C12.3814 4.24062 11.2363 3.09063 9.8049 3.09063C8.37353 3.09063 7.22843 4.24062 7.22843 5.67812C7.22843 5.75 7.22843 5.82188 7.22843 5.89375C4.15098 6.97187 1.57451 9.05625 0.0715686 11.7875C0 11.7875 0 11.6438 0 11.5Z" fill="#FCCF00"/>
<path fill-rule="evenodd" clip-rule="evenodd" d="M68.8188 14.7343V5.74995C68.8188 5.6062 68.7472 5.6062 68.604 5.6062H66.2423C66.0991 5.6062 66.0276 5.67808 66.0276 5.74995V15.3093C66.0276 17.0343 66.8148 17.3218 68.6756 17.3218C68.7472 17.3218 68.7472 17.3218 68.8188 17.25C68.8903 17.25 68.8188 17.1062 68.8188 17.1062V14.7343ZM31.3883 14.7343V5.74995C31.3883 5.6062 31.3168 5.6062 31.1736 5.6062H28.8119C28.6687 5.6062 28.5972 5.67808 28.5972 5.74995V15.3093C28.5972 17.0343 29.3844 17.3218 31.1736 17.3218C31.2452 17.3218 31.2452 17.3218 31.3168 17.25C31.3883 17.25 31.3168 17.1062 31.3168 17.1062L31.3883 14.7343ZM37.3285 17.3937C37.1854 17.3937 37.1854 17.3218 37.1854 17.25V10.925C37.1854 10.8531 37.1854 10.8531 37.1138 10.8531H36.6129C36.4697 10.8531 36.4697 10.7812 36.4697 10.7093V9.3437C36.4697 9.19995 36.5413 9.19995 36.6129 9.19995H37.1138C37.1854 9.19995 37.1854 9.19995 37.1854 9.12808V8.55308C37.1854 6.61245 38.1158 5.74995 40.0482 5.74995H41.3364C41.4795 5.74995 41.4795 5.82183 41.4795 5.8937V7.40308C41.4795 7.54683 41.408 7.54683 41.3364 7.54683H40.4776C39.7619 7.54683 39.5472 7.76245 39.5472 8.40933V9.0562C39.5472 9.12808 39.5472 9.12808 39.6187 9.12808H40.6923C40.8354 9.12808 40.8354 9.19995 40.8354 9.27183V10.6375C40.8354 10.7812 40.7638 10.7812 40.6923 10.7812H39.6187C39.5472 10.7812 39.5472 10.7812 39.5472 10.8531V17.25C39.5472 17.3937 39.4756 17.3937 39.404 17.3937C39.3325 17.3937 37.3285 17.3937 37.3285 17.3937ZM32.6766 7.25933C32.5334 7.25933 32.4619 7.18745 32.4619 7.11558V5.74995C32.4619 5.6062 32.5334 5.6062 32.6766 5.6062H35.0383C35.2531 5.6062 35.3246 5.67808 35.3246 5.74995V7.11558C35.3246 7.18745 35.2531 7.25933 35.1099 7.25933H32.6766ZM32.6766 17.3937C32.5334 17.3937 32.4619 17.3218 32.4619 17.25V9.12808C32.4619 8.98433 32.5334 8.98433 32.6766 8.98433H35.0383C35.1815 8.98433 35.2531 9.0562 35.2531 9.12808V17.25C35.2531 17.3937 35.1815 17.3937 35.0383 17.3937H32.6766ZM50.5687 15.0937C50.4256 14.5906 50.354 13.9437 50.354 13.1531C50.354 12.3625 50.4256 11.7156 50.5687 11.2125C50.9982 9.70308 52.2864 8.91245 54.004 8.91245C55.2923 8.91245 56.4374 9.48745 57.0099 10.4218C57.0815 10.4937 57.0815 10.5656 57.0099 10.6375L55.5786 11.5718C55.507 11.6437 55.3638 11.6437 55.3638 11.5718C55.006 11.1406 54.5766 10.8531 54.0756 10.8531C53.4315 10.8531 53.0021 11.1406 52.8589 11.7156C52.7874 12.0031 52.7158 12.4343 52.7158 13.0812C52.7158 13.7281 52.7874 14.1593 52.8589 14.4468C53.0736 15.0218 53.4315 15.3093 54.0756 15.3093C54.5766 15.3093 55.006 15.0937 55.3638 14.5906C55.4354 14.5187 55.507 14.5187 55.5786 14.5906L57.0099 15.525C57.0815 15.5968 57.0815 15.6687 57.0099 15.7406C56.4374 16.6749 55.2923 17.25 54.004 17.25C52.358 17.3937 51.0697 16.6031 50.5687 15.0937ZM62.9501 12.3625C63.0217 12.3625 63.0217 12.3625 63.0217 12.2906C63.0217 12.075 63.0217 11.8593 62.9501 11.7156C62.7354 11.1406 62.306 10.8531 61.5903 10.8531C60.9462 10.8531 60.3021 11.1406 60.0874 11.7156C60.0158 11.9312 60.0158 12.075 60.0158 12.2906C60.0158 12.3625 60.0158 12.3625 60.0874 12.3625C60.1589 12.3625 62.9501 12.3625 62.9501 12.3625ZM57.9403 15.0937C57.7256 14.5187 57.654 13.8718 57.654 13.1531C57.654 12.4343 57.7256 11.7875 57.9403 11.2125C58.4413 9.77495 59.8011 8.91245 61.5903 8.91245C63.4511 8.91245 64.7393 9.77495 65.2403 11.1406C65.455 11.7156 65.455 12.5062 65.455 13.5843C65.455 13.7281 65.3835 13.7281 65.2403 13.7281H60.1589C60.0874 13.7281 60.0874 13.7281 60.0874 13.8C60.0874 13.9437 60.0874 14.0875 60.1589 14.2312C60.3736 14.9499 61.0178 15.3093 61.9482 15.3093C62.6638 15.3093 63.1648 15.0937 63.5227 14.8781C63.8089 14.6625 63.8089 14.5906 64.0237 14.7343L65.3119 15.5968C65.455 15.6687 65.3835 15.7406 65.3119 15.8125C64.3815 16.7468 63.2364 17.1781 61.6619 17.1781C59.7295 17.3937 58.3697 16.5312 57.9403 15.0937ZM46.7756 12.3625C46.8472 12.3625 46.8472 12.3625 46.8472 12.2906C46.8472 12.075 46.8472 11.8593 46.7756 11.7156C46.5609 11.1406 46.1315 10.8531 45.4158 10.8531C44.7717 10.8531 44.1276 11.1406 43.9844 11.7156C43.9129 11.9312 43.9129 12.1468 43.9129 12.2906C43.9129 12.3625 43.9129 12.3625 43.9844 12.3625H46.7756ZM41.6942 15.0937C41.4795 14.5187 41.408 13.8718 41.408 13.1531C41.408 12.4343 41.4795 11.7875 41.6942 11.2125C42.1952 9.77495 43.555 8.91245 45.3442 8.91245C47.205 8.91245 48.4933 9.77495 48.9942 11.1406C49.2089 11.7156 49.2089 12.5062 49.2089 13.5843C49.2089 13.7281 49.1374 13.7281 48.9942 13.7281H43.9129C43.8413 13.7281 43.8413 13.7281 43.8413 13.8C43.8413 13.9437 43.8413 14.0875 43.9129 14.2312C44.1276 14.9499 44.7717 15.3093 45.7021 15.3093C46.4178 15.3093 46.9187 15.0937 47.2766 14.8781C47.5629 14.6625 47.5629 14.5906 47.7776 14.7343L49.0658 15.5968C49.2089 15.6687 49.1374 15.7406 49.0658 15.8125C48.1354 16.7468 46.9903 17.1781 45.4158 17.1781C43.555 17.3937 42.1952 16.5312 41.6942 15.0937ZM72.1825 14.7343V5.74995C72.1825 5.6062 72.1109 5.6062 71.9678 5.6062H69.606C69.4629 5.6062 69.3913 5.67808 69.3913 5.74995V15.3093C69.3913 17.0343 70.1786 17.3218 72.0393 17.3218C72.1109 17.3218 72.1109 17.3218 72.1825 17.25C72.254 17.25 72.1825 17.1062 72.1825 17.1062V14.7343Z" fill="#333333"/>
</svg>
