<svg width="16" height="21" viewBox="0 0 16 21" fill="none" xmlns="http://www.w3.org/2000/svg">
<path fill-rule="evenodd" clip-rule="evenodd" d="M8 4.36364C5.99169 4.36364 4.36364 5.99169 4.36364 8C4.36364 10.0083 5.99169 11.6364 8 11.6364C10.0083 11.6364 11.6364 10.0083 11.6364 8C11.6364 5.99169 10.0083 4.36364 8 4.36364ZM5.81818 8C5.81818 6.79501 6.79501 5.81818 8 5.81818C9.20499 5.81818 10.1818 6.79501 10.1818 8C10.1818 9.20499 9.20499 10.1818 8 10.1818C6.79501 10.1818 5.81818 9.20499 5.81818 8Z" fill="#333333"/>
<path fill-rule="evenodd" clip-rule="evenodd" d="M7.54957 20.2074C7.54977 20.2075 7.54994 20.2077 8 19.6364L7.54957 20.2074C7.81357 20.4153 8.18606 20.4156 8.45006 20.2077L8 19.6364C8.45006 20.2077 8.44986 20.2078 8.45006 20.2077L8.45255 20.2057L8.45767 20.2016L8.47567 20.1873C8.49104 20.1749 8.51311 20.1571 8.54144 20.134C8.59808 20.0878 8.67975 20.0203 8.78287 19.9329C8.98906 19.758 9.28138 19.5031 9.63116 19.1784C10.3298 18.5299 11.2624 17.5988 12.1968 16.4688C14.0415 14.2381 16 11.1052 16 7.77622C16 3.46028 12.3967 0 8 0C3.60331 0 0 3.46028 0 7.77622C0 11.1052 1.95854 14.2381 3.80317 16.4688C4.73764 17.5988 5.67024 18.5299 6.36885 19.1784C6.71862 19.5031 7.01094 19.758 7.21713 19.9329C7.32025 20.0203 7.40192 20.0878 7.45856 20.134C7.48689 20.1571 7.50896 20.1749 7.52434 20.1873L7.54233 20.2016L7.54745 20.2057L7.54957 20.2074ZM1.45455 7.77622C1.45455 4.30612 4.36345 1.45455 8 1.45455C11.6365 1.45455 14.5455 4.30612 14.5455 7.77622C14.5455 10.5781 12.8676 13.3752 11.0759 15.5419C10.1922 16.6105 9.3066 17.495 8.64157 18.1123C8.39199 18.344 8.17415 18.5375 8 18.6882C7.82585 18.5375 7.60801 18.344 7.35843 18.1123C6.6934 17.495 5.80782 16.6105 4.9241 15.5419C3.13237 13.3752 1.45455 10.5781 1.45455 7.77622Z" fill="#333333"/>
</svg>
