<svg width="43" height="20" viewBox="0 0 43 20" fill="none" xmlns="http://www.w3.org/2000/svg">
<g clip-path="url(#clip0)">
<path d="M0 19.9927H20.7634V0H0V19.9927Z" fill="#E30613"/>
<path d="M10.383 2.05286C13.333 2.05286 16.4892 7.13247 16.4892 11.5311C16.4892 14.9865 14.38 17.9348 10.383 17.9348C6.38602 17.9348 4.27686 14.9865 4.27686 11.5311C4.27686 7.13247 7.42788 2.05286 10.383 2.05286Z" fill="white"/>
<path d="M43 20H22.2378V0.00854492H43V20Z" fill="#E30613"/>
<path d="M23.7578 7.63464H25.9433L26.6582 10.458H26.6697L27.3846 7.63464H29.5688V12.4338H28.1161V9.35317H28.1008L27.237 12.4338H26.0909L25.2246 9.35317H25.2118V12.4338H23.7578V7.63464Z" fill="white"/>
<path d="M31.8027 8.86443H30.4072V7.63464H34.7375V8.86443H33.3382V12.4338H31.8027V8.86443Z" fill="white"/>
<path d="M38.4456 9.42068C38.4177 9.24797 38.2764 8.71637 37.6442 8.71637C36.9229 8.71637 36.6914 9.38883 36.6914 10.0356C36.6914 10.6823 36.9229 11.3523 37.6442 11.3523C38.153 11.3523 38.3617 11.0032 38.452 10.55H39.9607C39.9607 11.5189 39.1428 12.549 37.6836 12.549C36.0693 12.549 35.1572 11.454 35.1572 10.0356C35.1572 8.52161 36.1482 7.52087 37.6836 7.52087C39.0537 7.527 39.8081 8.21906 39.9378 9.42068H38.4456Z" fill="white"/>
</g>
<defs>
<clipPath id="clip0">
<rect width="43" height="20" fill="white"/>
</clipPath>
</defs>
</svg>
