<svg width="21" height="23" viewBox="0 0 21 23" fill="none" xmlns="http://www.w3.org/2000/svg">
<path d="M19.9997 6.70724L17.2678 9.68917C16.2921 10.7541 14.6367 10.3251 14.2491 8.93826C13.9583 7.97802 12.985 7.44339 12.1079 7.65543C10.1589 8.18578 7.52473 10.9546 7.03439 13.1933C6.74074 14.1527 7.32365 15.2199 8.19989 15.5411C9.46562 15.9695 9.85261 17.783 8.87693 18.848L6.14501 21.8299C5.36462 22.5752 4.19568 22.5735 3.51489 21.826L1.66704 19.7972C-0.180662 17.6616 1.87328 12.0127 6.45898 7.0073C11.0447 2.00191 16.211 -0.33665 18.1561 1.79906L20.0039 3.82794C20.6846 4.68207 20.6827 5.96175 19.9997 6.70724Z" fill="#FC8B00"/>
</svg>
