<svg width="59" height="58" viewBox="0 0 59 58" fill="none" xmlns="http://www.w3.org/2000/svg">
<path d="M54.321 13.4617C54.5486 13.4617 54.767 13.3715 54.9279 13.2108C55.0889 13.0502 55.1793 12.8323 55.1793 12.6052V10.5251H57.2639C57.4915 10.5251 57.7099 10.4349 57.8708 10.2742C58.0318 10.1136 58.1222 9.89575 58.1222 9.66859V5.26371C58.1222 5.03655 58.0318 4.81869 57.8708 4.65806C57.7099 4.49744 57.4915 4.4072 57.2639 4.4072H36.0005C35.3834 3.09007 34.4027 1.97584 33.1734 1.19523C31.9441 0.414623 30.5172 0 29.0601 0C27.6031 0 26.1762 0.414623 24.9469 1.19523C23.7176 1.97584 22.7369 3.09007 22.1198 4.4072H0.858345C0.630698 4.4072 0.412375 4.49744 0.251404 4.65806C0.0904326 4.81869 0 5.03655 0 5.26371V9.66859C0 9.89575 0.0904326 10.1136 0.251404 10.2742C0.412375 10.4349 0.630698 10.5251 0.858345 10.5251H2.9429V12.6052C2.9429 12.8323 3.03333 13.0502 3.1943 13.2108C3.35527 13.3715 3.5736 13.4617 3.80124 13.4617H11.237V26.6764H9.15241C8.92477 26.6764 8.70644 26.7666 8.54547 26.9272C8.3845 27.0878 8.29407 27.3057 8.29407 27.5329V46.6501H3.80124C3.24858 46.6494 2.71875 46.4301 2.32796 46.0401C1.93717 45.6502 1.71734 45.1215 1.71669 44.57V38.1359H3.80124C4.02889 38.1359 4.24721 38.0457 4.40819 37.885C4.56916 37.7244 4.65959 37.5066 4.65959 37.2794V32.4761L5.69892 31.7332C5.88185 31.6001 6.0047 31.4004 6.04073 31.1774C6.07677 30.9544 6.02306 30.7262 5.89132 30.5425C5.75957 30.3588 5.56044 30.2345 5.33729 30.1966C5.11413 30.1588 4.88501 30.2104 4.69981 30.3402L0.358053 33.4437C0.247289 33.5232 0.157051 33.6277 0.0947927 33.7488C0.0325345 33.8699 4.24004e-05 34.0041 0 34.1402V44.57C0.00116831 45.5756 0.402031 46.5397 1.11465 47.2508C1.82727 47.9619 2.79345 48.3619 3.80124 48.3631H8.29407V50.4138H6.94524C6.71759 50.4138 6.49927 50.504 6.3383 50.6647C6.17733 50.8253 6.08689 51.0432 6.08689 51.2703V53.3504H0.858345C0.630698 53.3504 0.412375 53.4406 0.251404 53.6013C0.0904326 53.7619 0 53.9797 0 54.2069V57.1435C0 57.3707 0.0904326 57.5885 0.251404 57.7491C0.412375 57.9098 0.630698 58 0.858345 58H57.2639C57.4915 58 57.7099 57.9098 57.8708 57.7491C58.0318 57.5885 58.1222 57.3707 58.1222 57.1435V54.2069C58.1222 53.9797 58.0318 53.7619 57.8708 53.6013C57.7099 53.4406 57.4915 53.3504 57.2639 53.3504H52.0353V51.2703C52.0353 51.0432 51.9449 50.8253 51.7839 50.6647C51.623 50.504 51.4046 50.4138 51.177 50.4138H49.8282V48.3631H54.321C55.3288 48.3619 56.295 47.9619 57.0076 47.2508C57.7202 46.5397 58.1211 45.5756 58.1222 44.57V34.1402C58.1222 34.0041 58.0897 33.8699 58.0274 33.7488C57.9652 33.6277 57.8749 33.5232 57.7642 33.4437L53.4224 30.3407C53.2372 30.2109 53.0081 30.1592 52.785 30.1971C52.5618 30.235 52.3627 30.3593 52.2309 30.543C52.0992 30.7267 52.0455 30.9548 52.0815 31.1778C52.1175 31.4008 52.2404 31.6006 52.4233 31.7337L53.4627 32.4761V37.2789C53.4627 37.5061 53.5531 37.7239 53.7141 37.8846C53.875 38.0452 54.0933 38.1354 54.321 38.1354H56.4055V44.57C56.4049 45.1215 56.1851 45.6502 55.7943 46.0401C55.4035 46.4301 54.8737 46.6494 54.321 46.6501H49.8282V27.5329C49.8282 27.3057 49.7377 27.0878 49.5768 26.9272C49.4158 26.7666 49.1975 26.6764 48.9698 26.6764H46.8853V13.4617H54.321ZM2.9429 33.7036V36.4229H1.71669V34.5807L2.9429 33.7036ZM55.1793 36.4229V33.7036L56.4055 34.5797V36.4229H55.1793ZM53.4627 11.7487H35.5453C35.7926 11.3606 36.0043 10.9511 36.178 10.5251H53.4627V11.7487ZM34.2553 26.6764C34.0277 26.6764 33.8094 26.7666 33.6484 26.9272C33.4874 27.0878 33.397 27.3057 33.397 27.5329V50.4138H32.0482C31.8205 50.4138 31.6022 50.504 31.4412 50.6647C31.2802 50.8253 31.1898 51.0432 31.1898 51.2703V53.3504H26.9324V51.2703C26.9324 51.0432 26.842 50.8253 26.681 50.6647C26.52 50.504 26.3017 50.4138 26.0741 50.4138H24.7252V27.5329C24.7252 27.3057 24.6348 27.0878 24.4738 26.9272C24.3129 26.7666 24.0946 26.6764 23.8669 26.6764H17.368V13.4617H24.0582C25.4472 14.6637 27.224 15.3254 29.0626 15.3254C30.9011 15.3254 32.678 14.6637 34.067 13.4617H40.7542V26.6764H34.2553ZM56.4055 6.12021V8.81209H36.643C36.7891 7.91874 36.7687 7.00615 36.5827 6.12021H56.4055ZM29.0611 1.71532C30.2402 1.71532 31.3929 2.06425 32.3733 2.71797C33.3536 3.37169 34.1177 4.30085 34.5689 5.38792C35.02 6.47499 35.1379 7.67115 34.9078 8.82511C34.6776 9.97907 34.1096 11.039 33.2757 11.8708C32.4418 12.7027 31.3794 13.2691 30.2229 13.4984C29.0664 13.7277 27.8677 13.6096 26.7785 13.1591C25.6892 12.7085 24.7583 11.9458 24.1035 10.9673C23.4487 9.9888 23.0994 8.83852 23.0998 7.66192C23.102 6.08512 23.7308 4.57357 24.8484 3.45878C25.9659 2.344 27.4809 1.71701 29.0611 1.71532ZM1.71669 6.12021H21.5396C21.3536 7.00615 21.3331 7.91874 21.4792 8.81209H1.71669V6.12021ZM4.65959 10.5251H21.9442C22.1179 10.9511 22.3297 11.3606 22.5769 11.7487H4.65959V10.5251ZM12.9537 13.4617H15.6513V26.6764H12.9537V13.4617ZM10.0108 28.3894H23.0086V50.4138H10.0108V28.3894ZM7.80358 52.1268H25.2157V53.3504H7.80358V52.1268ZM56.4055 56.287H1.71669V55.0634H56.4055V56.287ZM50.3186 53.3504H32.9065V52.1268H50.3186V53.3504ZM48.1115 50.4138H35.1137V28.3894H48.1115V50.4138ZM45.1686 26.6764H42.4709V13.4617H45.1686V26.6764Z" fill="#FC8B00"/>
<path d="M20.9199 29.6119H12.0913C11.9785 29.6119 11.8668 29.6341 11.7626 29.6772C11.6584 29.7203 11.5637 29.7835 11.484 29.8631C11.4042 29.9428 11.341 30.0373 11.298 30.1414C11.2549 30.2454 11.2328 30.3569 11.2329 30.4694V36.3426C11.2329 36.5698 11.3233 36.7876 11.4843 36.9482C11.6453 37.1089 11.8636 37.1991 12.0913 37.1991H20.9199C21.0327 37.1992 21.1443 37.1771 21.2485 37.134C21.3527 37.091 21.4473 37.0279 21.527 36.9484C21.6068 36.8688 21.67 36.7744 21.7131 36.6705C21.7562 36.5665 21.7784 36.4551 21.7783 36.3426V30.4694C21.7785 30.3568 21.7564 30.2453 21.7134 30.1413C21.6703 30.0372 21.6071 29.9427 21.5274 29.863C21.4477 29.7834 21.353 29.7202 21.2487 29.6771C21.1445 29.634 21.0328 29.6119 20.9199 29.6119ZM20.0616 35.4851H12.9496V31.325H20.0616V35.4851Z" fill="#FC8B00"/>
<path d="M20.9199 41.3588H12.0913C11.8636 41.3588 11.6453 41.449 11.4843 41.6096C11.3233 41.7703 11.2329 41.9881 11.2329 42.2153C11.2329 42.4424 11.3233 42.6603 11.4843 42.8209C11.6453 42.9815 11.8636 43.0718 12.0913 43.0718H20.9199C21.1476 43.0718 21.3659 42.9815 21.5269 42.8209C21.6879 42.6603 21.7783 42.4424 21.7783 42.2153C21.7783 41.9881 21.6879 41.7703 21.5269 41.6096C21.3659 41.449 21.1476 41.3588 20.9199 41.3588Z" fill="#FC8B00"/>
<path d="M36.3433 30.4699V36.3431C36.3432 36.4556 36.3654 36.567 36.4085 36.6709C36.4516 36.7749 36.5148 36.8693 36.5945 36.9489C36.6742 37.0284 36.7689 37.0915 36.8731 37.1345C36.9772 37.1776 37.0889 37.1997 37.2016 37.1996H46.0303C46.2579 37.1996 46.4763 37.1094 46.6372 36.9487C46.7982 36.7881 46.8886 36.5703 46.8886 36.3431V30.4699C46.8886 30.2427 46.7982 30.0249 46.6372 29.8643C46.4763 29.7036 46.2579 29.6134 46.0303 29.6134H37.2016C37.0889 29.6133 36.9772 29.6354 36.8731 29.6785C36.7689 29.7215 36.6742 29.7846 36.5945 29.8641C36.5148 29.9437 36.4516 30.0381 36.4085 30.1421C36.3654 30.246 36.3432 30.3574 36.3433 30.4699ZM38.06 31.3264H45.172V35.4866H38.06V31.3264Z" fill="#FC8B00"/>
<path d="M46.0362 41.3588H37.2075C36.9798 41.3588 36.7615 41.449 36.6005 41.6096C36.4396 41.7703 36.3491 41.9881 36.3491 42.2153C36.3491 42.4424 36.4396 42.6603 36.6005 42.8209C36.7615 42.9815 36.9798 43.0718 37.2075 43.0718H46.0362C46.2638 43.0718 46.4821 42.9815 46.6431 42.8209C46.8041 42.6603 46.8945 42.4424 46.8945 42.2153C46.8945 41.9881 46.8041 41.7703 46.6431 41.6096C46.4821 41.449 46.2638 41.3588 46.0362 41.3588Z" fill="#FC8B00"/>
<path d="M29.063 12.624C30.0708 12.6228 31.037 12.2228 31.7496 11.5117C32.4622 10.8006 32.8631 9.83651 32.8642 8.83088C32.8642 6.30443 30.0042 3.29687 29.6761 2.96259C29.5113 2.80293 29.2907 2.71362 29.061 2.71362C28.8313 2.71362 28.6107 2.80293 28.446 2.96259C28.1198 3.29687 25.2578 6.30443 25.2578 8.83088C25.259 9.83719 25.6604 10.8019 26.3738 11.5131C27.0873 12.2243 28.0545 12.6238 29.063 12.624ZM29.063 4.84495C29.9429 5.89625 31.1475 7.6073 31.1475 8.83088C31.1475 9.38255 30.9279 9.91163 30.537 10.3017C30.1461 10.6918 29.6158 10.911 29.063 10.911C28.5101 10.911 27.9799 10.6918 27.589 10.3017C27.198 9.91163 26.9784 9.38255 26.9784 8.83088C26.9784 7.6073 28.1831 5.89625 29.063 4.84495Z" fill="#FC8B00"/>
</svg>
